HIERARCHY
ROOT SpineBase
{
  OFFSET 0.000000 0.000000 0.000000
  CHANNELS 6 Xposition Yposition Zposition Zrotation Xrotation Yrotation
  JOINT SpineMid
  {
    OFFSET -0.000000 30.736676 0.000000
    CHANNELS 3 Zrotation Xrotation Yrotation
    JOINT SpineShoulder
    {
      OFFSET -0.054776 22.717020 -0.683241
      CHANNELS 3 Zrotation Xrotation Yrotation
      JOINT Neck
      {
        OFFSET -0.051541 7.470497 -0.547492
        CHANNELS 3 Zrotation Xrotation Yrotation
        JOINT Head
        {
          OFFSET 1.489849 15.782247 0.094999
          CHANNELS 3 Zrotation Xrotation Yrotation
          End Site
          {
            OFFSET 0 0 0
          }
        }
      }
      JOINT ShoulderLeft
      {
        OFFSET -18.747461 -3.506597 0.479624
        CHANNELS 3 Zrotation Xrotation Yrotation
        JOINT ElbowLeft
        {
          OFFSET -2.832125 -26.175714 -1.353518
          CHANNELS 3 Zrotation Xrotation Yrotation
          JOINT WristLeft
          {
            OFFSET 3.874133 -21.271236 -7.410431
            CHANNELS 3 Zrotation Xrotation Yrotation
            JOINT HandLeft
            {
              OFFSET 2.873267 -6.900930 -2.261977
              CHANNELS 3 Zrotation Xrotation Yrotation
              JOINT HandTipLeft
              {
                OFFSET 1.923844 -7.127842 -0.613725
                CHANNELS 3 Zrotation Xrotation Yrotation
                End Site
                {
                  OFFSET 0 0 0
                }
              }
              JOINT ThumbLeft
              {
                OFFSET 3.354920 1.237708 -2.455278
                CHANNELS 3 Zrotation Xrotation Yrotation
                End Site
                {
                  OFFSET 0 0 0
                }
              }
            }
          }
        }
      }
      JOINT ShoulderRight
      {
        OFFSET 17.108237 -3.329894 -0.436590
        CHANNELS 3 Zrotation Xrotation Yrotation
        JOINT ElbowRight
        {
          OFFSET 5.676441 -24.310942 4.647925
          CHANNELS 3 Zrotation Xrotation Yrotation
          JOINT WristRight
          {
            OFFSET -2.998202 -18.354254 -9.358775
            CHANNELS 3 Zrotation Xrotation Yrotation
            JOINT HandRight
            {
              OFFSET -3.047447 -7.058456 -4.003605
              CHANNELS 3 Zrotation Xrotation Yrotation
              JOINT HandTipRight
              {
                OFFSET -1.707028 -7.362554 -1.747799
                CHANNELS 3 Zrotation Xrotation Yrotation
                End Site
                {
                  OFFSET 0 0 0
                }
              }
              JOINT ThumbRight
              {
                OFFSET -3.384706 2.584373 -2.236738
                CHANNELS 3 Zrotation Xrotation Yrotation
                End Site
                {
                  OFFSET 0 0 0
                }
              }
            }
          }
        }
      }
    }
  }
  JOINT HipLeft
  {
    OFFSET -8.254259 0.001430 -3.451440
    CHANNELS 3 Zrotation Xrotation Yrotation
    JOINT KneeLeft
    {
      OFFSET -0.729231 -36.172515 3.152669
      CHANNELS 3 Zrotation Xrotation Yrotation
      JOINT AnkleLeft
      {
        OFFSET 3.484241 -33.505798 9.450096
        CHANNELS 3 Zrotation Xrotation Yrotation
        JOINT FootLeft
        {
          OFFSET -0.290839 -3.508054 -11.813197
          CHANNELS 3 Zrotation Xrotation Yrotation
          End Site
          {
            OFFSET 0 0 0
          }
        }
      }
    }
  }
  JOINT HipRight
  {
    OFFSET 7.468477 0.527687 -4.101106
    CHANNELS 3 Zrotation Xrotation Yrotation
    JOINT KneeRight
    {
      OFFSET 1.942509 -35.097786 2.931315
      CHANNELS 3 Zrotation Xrotation Yrotation
      JOINT AnkleRight
      {
        OFFSET 0.656612 -34.686619 8.587862
        CHANNELS 3 Zrotation Xrotation Yrotation
        JOINT FootRight
        {
          OFFSET -0.096393 -7.233284 -5.540811
          CHANNELS 3 Zrotation Xrotation Yrotation
          End Site
          {
            OFFSET 0 0 0
          }
        }
      }
    }
  }
}
MOTION
Frames: 15
Frame Time: 0.033333
40.950613 80.709066 388.825719 0.000000 0.000000 2.366124 -0.000000 0.000000 -2.366124 -0.000000 0.000000 0.000000 -0.000000 0.000000 0.000000 0.000000 0.000000 0.000000 -0.000000 0.000000 0.000000 -0.000000 0.000000 0.000000 -0.000000 0.000000 0.000000 -0.000000 0.000000 0.000000 0.000000 0.000000 0.000000 0.000000 0.000000 0.000000 -0.000000 0.000000 0.000000 -0.000000 0.000000 0.000000 -0.000000 0.000000 0.000000 -0.000000 0.000000 0.000000 0.000000 0.000000 0.000000 0.000000 0.000000 0.000000 -0.000000 0.000000 -2.366124 -0.000000 0.000000 0.000000 -0.000000 0.000000 0.000000 0.000000 0.000000 0.000000 -0.000000 0.000000 -2.366124 -0.000000 0.000000 0.000000 -0.000000 0.000000 0.000000 0.000000 0.000000 0.000000
41.148255 80.702912 388.748056 -0.062474 0.071340 2.297362 0.059564 -0.073787 -2.297284 -0.000000 0.000000 0.000000 -0.000000 0.000000 0.000000 0.000000 0.000000 0.000000 -0.000000 0.000000 0.000000 -0.000000 0.000000 0.000000 -0.000000 0.000000 0.000000 -1.217439 1.449251 0.512316 0.000000 0.000000 0.000000 0.000000 0.000000 0.000000 -0.681406 0.525543 -0.004450 0.681475 -0.525453 0.010700 -1.616235 -0.423231 1.089175 2.715406 0.131289 -1.310856 0.000000 0.000000 0.000000 0.000000 0.000000 0.000000 0.059564 -0.073787 -2.297284 -0.000000 0.000000 0.000000 -0.000000 0.000000 0.000000 0.000000 0.000000 0.000000 0.059564 -0.073787 -2.297284 -0.000000 0.000000 0.000000 -0.000000 0.000000 0.000000 0.000000 0.000000 0.000000
41.340177 80.696380 388.672253 -0.129309 0.124686 2.245228 0.124325 -0.129656 -2.244947 -0.000000 0.000000 0.000000 -0.000000 0.000000 0.000000 0.000000 0.000000 0.000000 -0.000000 0.000000 0.000000 -0.000000 0.000000 0.000000 -0.000000 0.000000 0.000000 -2.303081 3.153056 1.116341 0.000000 0.000000 0.000000 0.000000 0.000000 0.000000 -1.226693 0.969696 0.002277 1.226830 -0.969523 0.018484 -3.393611 -0.762475 2.211835 5.454419 0.452222 -2.736040 0.000000 0.000000 0.000000 0.000000 0.000000 0.000000 0.124325 -0.129656 -2.244947 -0.000000 0.000000 0.000000 -0.000000 0.000000 0.000000 0.000000 0.000000 0.000000 0.124325 -0.129656 -2.244947 -0.000000 0.000000 0.000000 -0.000000 0.000000 0.000000 0.000000 0.000000 0.000000
41.526380 80.689471 388.598309 -0.200517 0.160091 2.209683 0.194196 -0.167702 -2.209119 -0.000000 0.000000 0.000000 -0.000000 0.000000 0.000000 0.000000 0.000000 0.000000 -0.000000 0.000000 0.000000 -0.000000 0.000000 0.000000 -0.000000 0.000000 0.000000 -3.210759 5.077114 1.796738 0.000000 0.000000 0.000000 0.000000 0.000000 0.000000 -1.638829 1.334530 0.017459 2.515264 -1.157747 -0.436061 -6.164936 -1.200097 3.786636 8.135627 0.980276 -4.219723 0.000000 0.000000 0.000000 0.000000 0.000000 0.000000 0.194196 -0.167702 -2.209119 -0.000000 0.000000 0.000000 -0.000000 0.000000 0.000000 0.000000 0.000000 0.000000 0.194196 -0.167702 -2.209119 -0.000000 0.000000 0.000000 -0.000000 0.000000 0.000000 0.000000 0.000000 0.000000
41.706864 80.682184 388.526225 -0.276112 0.177597 2.190714 0.269123 -0.188020 -2.189844 -0.000000 0.000000 0.000000 -0.910107 0.194311 -0.011313 0.000000 0.000000 0.000000 -0.000000 0.000000 0.000000 -0.000000 0.000000 0.000000 0.636455 0.668960 0.065919 -4.523434 6.506453 2.407454 0.000000 0.000000 0.000000 0.000000 0.000000 0.000000 -1.919776 1.621662 0.039034 2.994592 -1.489063 -0.525732 -8.334809 -1.220135 4.945694 10.658589 1.719591 -5.679381 0.000000 0.000000 0.000000 0.000000 0.000000 0.000000 0.269123 -0.188020 -2.189844 -0.641855 -0.528710 -0.238803 0.639673 0.531348 0.232875 0.000000 0.000000 0.000000 0.269123 -0.188020 -2.189844 -0.000000 0.000000 0.000000 -0.000000 0.000000 0.000000 0.000000 0.000000 0.000000
41.881628 80.674518 388.456001 -0.356113 0.177235 2.188334 0.349087 -0.190701 -2.187202 -0.000000 0.000000 0.000000 -0.955949 0.282250 -0.018521 0.000000 0.000000 0.000000 -0.000000 0.000000 0.000000 -0.845718 -0.254915 0.246848 1.748077 0.919127 -0.274396 -5.236119 8.687144 3.228884 0.000000 0.000000 0.000000 0.000000 0.000000 0.000000 -2.070457 1.832195 0.065543 3.310443 -1.790832 -0.600464 -10.461293 -0.967787 5.984619 12.905769 2.657248 -7.012705 0.000000 0.000000 0.000000 0.000000 0.000000 0.000000 -0.299105 0.308520 -2.254225 -0.094143 -1.146982 -0.224985 0.758865 0.676547 0.280183 0.000000 0.000000 0.000000 0.349087 -0.190701 -2.187202 -0.000000 0.000000 0.000000 -0.000000 0.000000 0.000000 0.000000 0.000000 0.000000
42.033330 80.672689 388.396925 -0.466502 0.134252 2.246973 0.460881 -0.152434 -2.245814 -0.000000 0.000000 0.000000 -0.814996 0.471144 -0.036194 0.000000 0.000000 0.000000 -0.000000 0.000000 0.000000 -1.486217 -0.413519 0.438702 3.350478 1.120017 -0.774287 -7.118664 13.055942 5.061710 0.000000 0.000000 0.000000 0.000000 0.000000 0.000000 -1.942958 1.979389 0.125194 3.368310 -2.120163 -0.714438 -12.583351 -0.956666 7.137334 14.570807 3.523028 -8.234686 0.000000 0.000000 0.000000 0.000000 0.000000 0.000000 -0.279970 0.441597 -2.321899 -0.106317 -1.368555 -0.262011 0.867015 0.808879 0.322924 0.000000 0.000000 0.000000 -0.330099 -0.575514 -2.340582 0.773065 0.454975 0.086674 -0.000000 0.000000 0.000000 0.000000 0.000000 0.000000
42.208321 80.666687 388.327551 -0.570540 0.084284 2.233632 0.566823 -0.106451 -2.232686 -0.000000 0.000000 0.000000 -0.564839 0.638675 -0.053717 0.000000 0.000000 0.000000 -0.000000 0.000000 0.000000 -1.833117 -0.580111 0.526192 4.229310 1.620581 -0.916245 -6.104215 14.952106 5.416171 0.000000 0.000000 0.000000 0.000000 0.000000 0.000000 -1.769936 1.994360 0.159215 3.362071 -2.310540 -0.803455 -15.268701 -0.014979 8.251895 16.728419 5.138903 -9.520966 0.000000 0.000000 0.000000 0.000000 0.000000 0.000000 -0.288019 0.570788 -2.318972 -0.102550 -1.610254 -0.302567 0.979102 0.973168 0.369598 0.000000 0.000000 0.000000 -0.362093 -0.578891 -2.342366 0.908866 0.509934 0.100080 -0.000000 0.000000 0.000000 0.000000 0.000000 0.000000
42.386845 80.655015 388.250115 -0.652279 0.039289 2.234739 0.650251 -0.064691 -2.234148 -0.786987 -0.200719 -0.060436 0.397836 0.974431 -0.008975 0.000000 0.000000 0.000000 0.786780 0.201530 0.057673 -1.984779 -0.622602 0.570216 4.449067 1.719167 -0.963127 -5.454984 14.893704 5.250445 0.000000 0.000000 0.000000 0.000000 0.000000 0.000000 -0.696780 2.126758 0.255710 3.328958 -2.633880 -0.904696 -18.538239 3.165581 9.079187 18.930228 5.209811 -9.714668 0.000000 0.000000 0.000000 0.000000 0.000000 0.000000 -0.339636 0.663528 -2.331587 -0.045902 -1.793752 -0.329245 1.058416 1.112298 0.404642 0.000000 0.000000 0.000000 -0.433057 -0.596348 -2.360828 1.060541 0.575722 0.115102 -0.000000 0.000000 0.000000 0.000000 0.000000 0.000000
42.545574 80.640870 388.181022 -0.716469 -0.004830 2.253753 0.716105 -0.023349 -2.253637 -0.831398 -0.257111 -0.064564 0.478776 1.128823 -0.015009 0.000000 0.000000 0.000000 0.013969 0.180290 0.114488 -1.257051 -0.497545 0.562123 4.394519 1.428301 -1.046750 -6.134018 13.563493 5.029718 0.000000 0.000000 0.000000 0.000000 0.000000 0.000000 -0.515254 2.258014 0.302234 2.994155 -2.953991 -0.812949 -18.677491 4.679609 8.822092 18.394293 7.708902 -9.709807 0.000000 0.000000 0.000000 0.000000 0.000000 0.000000 -0.398654 0.744773 -2.360965 0.106979 -2.068819 -0.336206 1.030849 1.353146 0.420303 0.000000 0.000000 0.000000 -0.459800 -0.593902 -2.390362 0.314938 0.353769 -0.080799 0.174151 0.056803 0.722845 0.000000 0.000000 0.000000
42.690769 80.615631 388.113273 -0.756070 -0.041576 2.330609 -0.051817 -0.177799 -2.356746 -0.040644 -0.062107 -0.039368 0.296906 1.095977 -0.005301 0.000000 0.000000 0.000000 -0.051655 0.146754 0.125774 -1.173048 -0.389791 0.560010 3.663172 0.741345 -1.065404 -5.032337 9.416489 3.602761 0.000000 0.000000 0.000000 0.000000 0.000000 0.000000 -0.525366 2.209361 0.281616 2.598256 -2.955070 -0.584132 -20.229623 6.084145 9.348389 22.853086 7.214687 -10.643757 0.000000 0.000000 0.000000 0.000000 0.000000 0.000000 -0.486463 0.846031 -2.448767 0.232749 -2.337027 -0.348624 1.036321 1.561831 0.441874 0.000000 0.000000 0.000000 -0.507891 -0.616377 -2.478626 0.308752 0.249668 -0.096796 0.023088 0.560764 0.932072 0.000000 0.000000 0.000000
42.814058 80.583968 388.054350 -0.811187 -0.081227 2.475358 -0.067341 -0.178870 -2.504103 -0.042582 -0.055124 -0.042641 0.202336 1.017008 0.013204 0.000000 0.000000 0.000000 -0.003645 0.061451 0.144733 -1.012384 -0.016075 0.551605 3.134178 -0.432736 -1.301798 -4.654599 6.969995 2.923128 0.000000 0.000000 0.000000 0.000000 0.000000 0.000000 -0.683716 2.103220 0.213453 2.567297 -2.830382 -0.379214 -18.331267 6.228221 8.301479 22.938178 7.656339 -10.483995 0.000000 0.000000 0.000000 0.000000 0.000000 0.000000 -0.576247 1.065618 -2.607053 0.315628 -2.665996 -0.372085 1.108899 1.717822 0.476323 0.000000 0.000000 0.000000 -0.482218 -0.621797 -2.628563 0.225469 0.139437 -0.122697 -0.014192 0.835228 1.075949 0.000000 0.000000 0.000000
42.905404 80.560046 388.002551 -0.971246 -0.202863 2.641771 -0.133512 -0.188436 -2.679054 -0.058055 -0.053651 -0.054090 0.659255 1.367821 0.007498 0.000000 0.000000 0.000000 0.092750 0.002367 0.190666 -0.597726 0.319357 0.459748 2.461298 -0.033048 -0.878475 -4.467894 4.792783 2.064289 0.000000 0.000000 0.000000 0.000000 0.000000 0.000000 -0.851505 2.164549 0.146976 3.544866 -3.064369 -0.493844 -20.540636 8.451271 8.951993 24.855999 6.421715 -10.084054 0.000000 0.000000 0.000000 0.000000 0.000000 0.000000 -0.568190 1.494643 -2.788231 0.408049 -3.249833 -0.409250 1.409160 4.225949 -0.417885 0.000000 0.000000 0.000000 -0.304251 -0.537867 -2.795282 0.134888 0.048387 -0.143362 -0.203592 1.168962 1.300074 0.000000 0.000000 0.000000
42.959458 80.531877 387.959093 -1.186408 -0.333235 2.806696 -0.205623 -0.198401 -2.854958 -0.072294 -0.051649 -0.068097 1.121447 1.566235 0.019708 0.000000 0.000000 0.000000 0.163139 0.005617 0.240118 0.440075 0.792367 0.208232 0.851719 -0.210544 -0.333268 -3.972462 3.509813 1.421029 0.000000 0.000000 0.000000 0.000000 0.000000 0.000000 -1.002226 2.150856 0.056843 3.571902 -2.450698 -0.246193 -20.371019 7.113965 9.098647 26.236599 7.188730 -11.081662 0.000000 0.000000 0.000000 0.000000 0.000000 0.000000 -0.529802 2.069587 -2.970565 0.556036 -3.987062 -0.436405 1.463934 3.729271 -0.294262 0.000000 0.000000 0.000000 -0.006503 -0.424664 -2.954441 -0.020491 -0.066912 -0.171150 -0.368839 1.551190 1.508039 0.000000 0.000000 0.000000
43.031083 80.516655 387.901598 -1.399377 -0.467145 2.912159 -0.288254 -0.198979 -2.971916 -0.091549 -0.046398 -0.082694 1.665970 1.817547 0.023587 0.000000 0.000000 0.000000 0.122431 0.032131 0.294422 1.648188 0.690381 -0.170072 -0.626644 1.777239 0.952456 -6.109882 1.353833 0.461242 0.000000 0.000000 0.000000 0.000000 0.000000 0.000000 -1.168283 2.219773 -0.013678 2.936448 -1.485203 0.250676 -17.227426 2.717344 8.405025 23.828405 6.498152 -11.494481 0.000000 0.000000 0.000000 0.000000 0.000000 0.000000 -0.661703 2.800068 -3.103190 0.937508 -4.887401 -0.425661 1.402171 1.317426 0.239554 0.000000 0.000000 0.000000 0.248851 -0.339850 -3.060811 -0.139597 -0.133565 -0.194150 -0.478008 1.948924 1.675498 0.000000 0.000000 0.000000
